<?xml version="1.0" encoding="UTF-8" standalone="no"?>
<svg
   xmlns:dc="http://purl.org/dc/elements/1.1/"
   xmlns:cc="http://creativecommons.org/ns#"
   xmlns:rdf="http://www.w3.org/1999/02/22-rdf-syntax-ns#"
   xmlns:svg="http://www.w3.org/2000/svg"
   xmlns="http://www.w3.org/2000/svg"
   xmlns:sodipodi="http://sodipodi.sourceforge.net/DTD/sodipodi-0.dtd"
   xmlns:inkscape="http://www.inkscape.org/namespaces/inkscape"
   sodipodi:docname="coach-col.svg"
   inkscape:version="0.92.3 (2405546, 2018-03-11)"
   id="svg769"
   version="1.1"
   viewBox="0 0 57.361656 65.532768"
   height="65.532768mm"
   width="57.361656mm">
  <title
     id="title811">Coach</title>
  <defs
     id="defs763" />
  <sodipodi:namedview
     inkscape:window-maximized="1"
     inkscape:window-y="-8"
     inkscape:window-x="3832"
     inkscape:window-height="1017"
     inkscape:window-width="1920"
     fit-margin-bottom="0"
     fit-margin-right="0"
     fit-margin-left="0"
     fit-margin-top="0"
     inkscape:snap-global="false"
     showgrid="false"
     inkscape:document-rotation="0"
     inkscape:current-layer="layer1"
     inkscape:document-units="mm"
     inkscape:cy="90.140407"
     inkscape:cx="375.73561"
     inkscape:zoom="1.979899"
     inkscape:pageshadow="2"
     inkscape:pageopacity="0.0"
     borderopacity="1.0"
     bordercolor="#666666"
     pagecolor="#ffffff"
     id="base" />
  <metadata
     id="metadata766">
    <rdf:RDF>
      <cc:Work
         rdf:about="">
        <dc:format>image/svg+xml</dc:format>
        <dc:type
           rdf:resource="http://purl.org/dc/dcmitype/StillImage" />
        <dc:title>Coach</dc:title>
        <cc:license
           rdf:resource="http://creativecommons.org/publicdomain/zero/1.0/" />
      </cc:Work>
      <cc:License
         rdf:about="http://creativecommons.org/publicdomain/zero/1.0/">
        <cc:permits
           rdf:resource="http://creativecommons.org/ns#Reproduction" />
        <cc:permits
           rdf:resource="http://creativecommons.org/ns#Distribution" />
        <cc:permits
           rdf:resource="http://creativecommons.org/ns#DerivativeWorks" />
      </cc:License>
    </rdf:RDF>
  </metadata>
  <g
     transform="translate(179.83961,-249.51047)"
     id="layer1"
     inkscape:groupmode="layer"
     inkscape:label="Lager 1">
    <path
       style="fill:#cdde87;stroke:#000000;stroke-width:0.99999994px;stroke-linecap:butt;stroke-linejoin:miter;stroke-opacity:1;fill-opacity:1"
       d="M 61.964844 0.71875 C 60.714841 0.71875 55.357422 4.2890625 55.357422 4.2890625 L 69.107422 7.6835938 C 69.107422 7.6835938 63.214847 0.71875 61.964844 0.71875 z M 5.8925781 16.791016 L 0.71484375 19.646484 L 6.7851562 28.21875 L 20 31.96875 L 22.142578 29.291016 L 5.8925781 16.791016 z "
       transform="matrix(0.26458333,0,0,0.26458333,-179.83961,249.51047)"
       id="path9" />
    <path
       style="fill:#cdde87;stroke:none;stroke-width:0.26458332px;stroke-linecap:butt;stroke-linejoin:miter;stroke-opacity:1"
       d="m -164.53157,309.89331 c 0,0 22.2061,5.10268 22.58407,4.8192 0.37798,-0.28348 11.10305,-11.29204 11.10305,-11.29204 l -0.28348,-3.9215 -2.4096,-2.50409 c 0,0 0.18899,-2.36236 -0.0472,-2.36236 -0.23624,0 -1.37017,-0.18898 -1.37017,-0.18898 l -0.51972,-8.36273 c 0,0 4.96094,2.74033 5.66965,2.74033 0.7087,0 3.87425,0.37798 3.87425,0.37798 l 2.07887,-2.12612 0.94494,-5.19717 -4.06324,-11.05581 -1.41741,-2.03162 -0.75595,-2.50409 -2.03163,1.41741 -3.07105,0.0945 0.42522,3.02381 c 0,0 -0.51972,1.79539 -0.89769,1.6064 -0.37798,-0.18899 -9.02418,-3.87425 -9.02418,-3.87425 l -6.28386,0.18898 c 0,0 -5.05543,3.73252 -5.38616,3.96875 -0.33073,0.23624 -5.24442,2.97657 -5.24442,2.97657 l -4.25223,1.27567 -3.40179,5.76413 -0.0472,3.07106 -0.70871,1.08668 0.28348,2.12612 c 0,0 -2.74032,7.70126 -2.74032,7.89025 0,0.18899 0.14174,7.41778 0.14174,7.41778 l 2.74032,3.59078 z"
       id="path16"
       inkscape:connector-curvature="0" />
    <path
       style="fill:#cccccc;stroke:none;stroke-width:0.26458332px;stroke-linecap:butt;stroke-linejoin:miter;stroke-opacity:1"
       d="m -164.38983,293.73483 c 0.28348,-0.33073 0.7087,-1.18118 0.89769,-1.22842 0.18899,-0.0473 1.6064,-0.28349 1.6064,-0.28349 l 0.85045,3.40179 -0.70871,1.84263 c 0,0 -1.6064,0.33073 -1.65365,0 -0.0472,-0.33072 -0.23623,-2.50409 -0.23623,-2.50409 z"
       id="path14"
       inkscape:connector-curvature="0" />
    <path
       style="fill:#f4d7d7;stroke:none;stroke-width:0.99999994px;stroke-linecap:butt;stroke-linejoin:miter;stroke-opacity:1"
       d="M 190.89258 16.433594 L 185.89258 16.611328 L 183.03516 22.146484 L 176.78516 21.253906 L 170.71484 27.683594 L 161.42773 34.46875 L 164.28516 53.21875 L 170.71484 61.789062 L 172.85742 68.753906 L 182.32227 69.111328 L 191.07227 63.21875 L 189.64258 58.041016 C 189.64258 58.041016 199.28656 48.217905 199.82227 47.146484 C 200.35798 46.075064 201.25 29.291016 201.25 29.291016 L 211.78516 26.96875 L 211.78516 23.21875 L 204.10742 20.361328 L 196.42773 22.503906 L 190.89258 16.433594 z M 95.357422 23.933594 C 93.571708 23.933594 23.572266 24.111328 23.572266 24.111328 L 21.072266 46.96875 L 33.927734 67.326172 L 33.035156 71.96875 L 28.214844 76.253906 L 31.072266 79.46875 L 38.392578 79.289062 L 41.964844 82.146484 L 39.822266 87.683594 L 43.572266 90.361328 L 45.535156 98.753906 L 50.177734 99.646484 L 61.785156 101.78906 C 61.785156 101.78906 81.786296 94.112176 83.214844 93.933594 C 84.64343 93.7552 113.21484 70.003906 113.21484 70.003906 C 113.21484 70.003906 116.60772 57.861034 115.71484 57.503906 C 114.82201 57.146741 101.96484 46.96875 101.96484 46.96875 C 101.96484 46.96875 97.143135 23.933594 95.357422 23.933594 z M 178.03516 156.25391 L 170.17773 157.50391 C 170.17773 158.75391 168.92943 170.71875 169.82227 170.71875 C 170.71514 170.71875 175.35742 170.53906 175.35742 170.53906 L 176.42773 178.93359 L 184.28516 189.28906 L 190.71484 182.68359 C 190.71484 182.68359 195.35712 171.61188 196.25 171.07617 C 197.14284 170.54046 201.60687 165.54076 200.89258 165.18359 C 200.17829 164.82643 191.42773 158.93359 191.42773 158.93359 L 178.03516 156.25391 z "
       transform="matrix(0.26458333,0,0,0.26458333,-179.83961,249.51047)"
       id="path18" />
    <path
       style="fill:#d35f5f;stroke:none;stroke-width:0.26458332px;stroke-linecap:butt;stroke-linejoin:miter;stroke-opacity:1"
       d="m -164.72056,270.30031 c 0.33073,0 1.55915,0.18898 1.55915,0.18898 l 1.03943,-1.32291 -1.6064,-0.37798 z"
       id="path26"
       inkscape:connector-curvature="0" />
    <path
       sodipodi:nodetypes="scssscscccsssssssssscccscsssssssccssssccsssssssssccccscssssssssscscssscscssssssssssccccsscccssssssscssssssssssssscsssssssssscsssssssssssssssssscsscscsssssssscssssscsssssscssscsscssssssssssccssssssscsssssscssssccsccsssssssssssssssssssssssssssssssssssssssssssssscssscsccccsssssssscsscssscssssssssssssssssssssssssscssscscssssssssssssssssssssscsccsccsssssssscssssssssssssssscscsssscssscscccssssssscscsssssssssssssssssscccssssssssssssssssssssccccssssssssssssscscssssssccsssscssccsccssssscssssscssssssscsscsccssssccssscccssscsssssssscsssssssssssssssssssccsssssssscscssscssssssssssccsscccscccsscccccssscssssssssccssscsssssssscsssscscscsscssssscsscsssssssssss"
       transform="scale(0.26458333)"
       d="m -617.55859,943.0332 c -1.46336,-0.0274 -2.98761,0.32149 -4.43946,1.07227 -1.69013,0.87398 -3.07825,1.9141 -3.08203,2.3125 -0.005,0.3984 -2.71816,1.56926 -6.0293,2.60156 -3.36082,1.04791 -8.20774,3.61893 -10.97265,5.82031 -2.72406,2.16889 -5.35623,3.69368 -5.84961,3.38868 -0.49342,-0.30501 -5.79032,-0.5983 -11.76953,-0.65235 -11.30325,-0.1025 -17.86437,1.31654 -19.72461,4.26563 -2.15422,3.41522 8.45777,12.97873 15.96289,14.38672 l 3.25391,0.61132 -0.17188,7.65235 c -0.20742,9.20439 1.89283,14.27871 8.75195,21.15041 5.32918,5.3388 5.80313,8.2417 1.62891,9.9707 -4.00762,1.66 -4.444,3.5248 -1.55273,6.6445 1.99022,2.1474 3.02736,2.5254 5.54687,2.0215 1.70408,-0.3408 3.97127,-0.1516 5.03906,0.4199 1.75745,0.9405 1.80267,1.2393 0.4668,3.1465 -1.65842,2.3677 -0.53457,5.7969 1.90039,5.7969 1.03298,0 1.25799,0.8848 0.85547,3.3652 -0.4834,2.979 -0.12987,3.6832 3.06641,6.1211 2.9492,2.2495 3.8833,2.5296 5.0957,1.5234 0.86676,-0.7193 2.55551,-0.9631 4.05859,-0.5859 l 2.57422,0.6445 -4.51562,5.0235 c -7.08609,7.8815 -10.10743,14.949 -10.10743,23.6465 0,4.8687 -0.40928,7.3959 -1.25,7.7187 -1.50912,0.5791 -1.69127,7.543 -0.19726,7.543 0.57876,0 -0.36474,2.5846 -2.09766,5.7422 -5.00715,9.1237 -9.01531,25.6457 -9.64453,39.7578 -0.50324,11.2865 -0.38571,12.338 1.99414,17.6875 3.35059,7.5316 9.90489,13.6338 20.08985,18.7031 6.83043,3.3996 8.81376,4.9457 11.36328,8.8633 3.2578,5.0059 8.94702,11.2461 10.2539,11.2461 0.0758,0 0.15958,0.038 0.24219,0.072 h 114.09375 c -0.0355,-0.8406 0.62009,-2.4597 2.07422,-5.1562 1.60656,-2.9793 3.33334,-5.6929 3.83594,-6.0293 1.02383,-0.6852 0.47878,-9.3011 -0.78321,-12.3867 -0.44987,-1.1 -2.53348,-4.5538 -4.63086,-7.6738 l -3.81445,-5.6739 2.47461,-4.3261 c 2.62908,-4.5988 3.17162,-9.9215 1.46875,-14.4004 -0.79695,-2.0961 -0.68975,-3.0681 0.47461,-4.3164 4.63457,-4.969 7.63989,-9.1621 7.14258,-9.9668 -0.31155,-0.5042 0.10296,-1.4728 0.92187,-2.1524 0.81895,-0.6797 1.48828,-1.8356 1.48828,-2.5683 0,-0.7326 1.15749,-2.4877 2.57032,-3.9004 3.06633,-3.0663 2.83757,-5.8918 -0.51563,-6.3672 -1.33451,-0.1892 -3.62482,-1.6271 -5.08984,-3.1953 -1.86565,-1.9971 -3.29303,-2.6868 -4.76172,-2.3028 -1.15332,0.3016 -4.1463,-0.2331 -6.65039,-1.1894 -3.10216,-1.1851 -5.93737,-1.5503 -8.89844,-1.1446 l -4.3457,0.5957 0.20312,-6.7089 c 0.11112,-3.6903 0.26634,-6.865 0.34571,-7.0547 0.0792,-0.1898 2.17427,0.8442 4.65625,2.2988 11.23328,6.5831 25.06716,9.8497 30.28711,7.1504 5.28408,-2.7325 9.36066,-11.5101 10.96484,-23.6035 0.77749,-5.8611 0.57572,-7.3339 -2.0625,-14.9864 -1.60917,-4.6672 -3.99625,-10.7057 -5.30469,-13.4179 -1.30843,-2.7122 -3.50663,-8.6284 -4.88476,-13.1465 -1.77623,-5.8234 -3.19841,-8.6692 -4.88672,-9.7754 -1.69569,-1.1111 -2.58193,-2.8936 -3.07617,-6.1894 -0.38181,-2.5461 -1.5627,-5.4963 -2.62305,-6.5567 -2.53266,-2.5327 -2.43328,-4.3783 0.35351,-6.60546 1.25428,-1.0024 3.58772,-3.54936 5.18555,-5.66015 2.69866,-3.56659 2.89268,-4.41122 2.73242,-11.94922 -0.18916,-8.89342 0.25187,-9.67276 5.48047,-9.69922 3.08901,-0.0149 6.32031,-2.13804 6.32031,-4.15234 0,-4.59292 -7.66723,-8.07088 -12.95898,-5.87891 -2.82081,1.1684 -3.26977,1.06024 -5.70703,-1.37695 -1.45527,-1.45531 -3.73504,-2.92018 -5.06445,-3.25391 -3.36378,-0.84419 -7.26954,1.14025 -7.26954,3.69336 0,1.70185 -0.41692,1.96237 -2.25,1.40625 -2.95698,-0.89594 -2.95706,-0.89501 -5.07617,0.0273 -1.00463,0.43741 -2.20703,1.79498 -2.67187,3.01758 -0.52426,1.379 -2.01434,2.45601 -3.92383,2.83789 -1.79513,0.35902 -3.07813,1.24084 -3.07813,2.11524 0,0.82458 -1.34232,2.19386 -2.98437,3.04297 -3.47225,1.79557 -4.56168,4.93882 -3.07031,8.86132 0.58049,1.5269 1.05468,4.11584 1.05468,5.75196 0,3.53249 3.24664,10.35455 6.66602,14.00789 1.77604,1.8975 2.70804,4.4625 3.40234,9.3652 0.52593,3.7136 1.20508,7.1528 1.50782,7.6426 0.30266,0.4897 -5.1e-4,2.4152 -0.67383,4.2773 l -1.22461,3.3848 -5.08789,-3.0918 c -2.79863,-1.7002 -5.3147,-3.3993 -5.58985,-3.7774 -0.83452,-1.1472 -18.18251,-6.6651 -26.08203,-8.2949 -4.56971,-0.9428 -9.59676,-1.3035 -13.0957,-0.9414 l -5.67969,0.5879 1.49024,-4.3223 c 0.81929,-2.3775 1.24553,-5.2898 0.94922,-6.4707 -0.92501,-3.68549 -4.70891,-7.59803 -9.21875,-9.53126 -2.96062,-1.26909 -4.1565,-2.31213 -3.7793,-3.29492 0.30357,-0.79101 -0.26621,-2.04847 -1.26563,-2.79297 -1.09353,-0.81471 -1.94755,-2.94641 -2.14257,-5.35351 -1.14913,-14.18608 -11.78583,-26.72924 -25.67579,-30.27735 -3.08265,-0.78738 -5.68164,-2.19801 -6.77929,-3.67773 -1.49676,-2.01767 -3.76811,-3.10862 -6.20703,-3.1543 z m -1.01368,2.61133 c 1.3101,0 2.66022,0.45 3,1 0.36851,0.5963 -0.8426,0.99805 -3,0.99805 -2.15739,0 -3.3685,-0.40175 -3,-0.99805 0.33994,-0.55 1.68994,-1 3,-1 z m 127.03711,15.49024 c 0.82045,-0.0469 1.71208,0.10582 2.4668,0.50976 4.11953,2.20471 5.95317,6.53386 7.12305,16.82227 l 1.14062,10.03906 -5.6582,6.81641 c -4.69058,5.65083 -5.55661,7.27783 -5.06641,9.50973 0.49168,2.2385 0.11497,2.9313 -2.22656,4.1172 -1.54896,0.7845 -4.50592,1.7333 -6.57226,2.1074 -3.41371,0.6181 -3.8478,0.4415 -4.75,-1.9316 -0.54615,-1.4364 -0.99415,-2.9769 -0.99415,-3.4238 0,-0.4468 -0.73493,-1.4232 -1.63476,-2.17 -2.92158,-2.4243 -6.36524,-8.77653 -6.36524,-11.74214 0,-1.59178 -0.68074,-4.82474 -1.51367,-7.18554 -1.48588,-4.21142 -1.22848,-7.95899 0.54688,-7.95899 0.49379,0 2.43519,-1.35001 4.31445,-3 1.87922,-1.64999 4.13621,-3 5.01563,-3 0.87942,0 1.88149,-1.12501 2.22656,-2.5 0.43328,-1.7263 1.31458,-2.5 2.8457,-2.5 1.2195,0 3.27269,1.12501 4.56445,2.5 2.38356,2.5372 5,3.32211 5,1.5 0,-0.55 0.92809,-1 2.06055,-1 1.22801,0 1.78746,-0.43951 1.38672,-1.08789 -0.36952,-0.60155 -1.52711,-0.8631 -2.57227,-0.58984 -1.79531,0.46949 -3.875,-1.75769 -3.875,-4.15039 0,-0.9677 1.1697,-1.60347 2.53711,-1.68164 z m -183.5,0.73046 c 1.03442,0.0452 1.96289,1.00337 1.96289,2.31641 0,1.23651 2.30577,2.81831 10.13086,6.94922 1.02849,0.54289 1.86914,1.3304 1.86914,1.75 0,1.49529 -3.5591,0.60646 -7.25,-1.81055 -2.06248,-1.35057 -3.75,-2.89942 -3.75,-3.4414 0,-0.54203 -0.6592,-0.98438 -1.46484,-0.98438 -1.88262,0 -3.93296,-3.63728 -2.53711,-4.5 0.3376,-0.20865 0.69426,-0.29437 1.03906,-0.2793 z m 198.20704,3.96875 c 1.31567,-0.0489 2.9653,0.38317 4.78124,1.32227 1.73832,0.89889 3.00696,1.76431 2.81836,1.92187 -0.18859,0.15738 -2.7353,0.55639 -5.6582,0.88672 -5.05973,0.57181 -5.29934,0.49327 -5,-1.61132 0.22738,-1.59874 1.36696,-2.45666 3.0586,-2.51954 z m -131.39063,3.02149 c 7.87245,0.0898 15.1656,0.67584 18.46484,1.7168 3.18123,1.00369 3.61599,1.44687 2.60743,2.66211 -1.67071,2.01304 -0.35618,3.00953 1.71875,1.30273 1.54594,-1.2717 1.63791,-1.10521 1.04101,1.9082 -0.36174,1.82559 -0.26231,3.05671 0.22461,2.75586 1.1977,-0.74029 2.07017,1.80652 1.44141,4.21094 -0.34402,1.3155 0.33609,2.62764 2.06836,3.99023 3.27019,2.57243 3.23556,2.86073 -0.41993,3.5918 -1.84535,0.36911 -3,1.2208 -3,2.21289 0,1.3313 0.70841,1.49304 4.05469,0.92774 3.3936,-0.5734 4.70434,-0.25499 8.04102,1.95312 6.55015,4.33471 7.2127,9.46841 2.13672,16.55661 -3.04797,4.2563 -6.97131,7.943 -14.23243,13.375 -3.02502,2.263 -5.72485,4.3434 -6,4.6231 -1.34199,1.3657 -11.08793,6.8239 -15.71093,8.7988 -5.95272,2.5427 -17.28711,4.1188 -17.28711,2.4043 0,-0.5959 0.45,-1.3614 1,-1.7012 0.54999,-0.3399 1,-1.1101 1,-1.7129 0,-0.6028 -0.90598,-0.2779 -2.01172,0.7227 -1.23133,1.1144 -3.6535,1.8522 -6.25,1.9043 -3.92315,0.079 -4.22534,-0.1006 -4.06055,-2.4141 0.0979,-1.375 0.49648,-3.7864 0.88672,-5.3593 0.68958,-2.7794 0.62182,-2.8398 -2.42773,-2.17 -2.70547,0.5942 -3.13672,0.4108 -3.13672,-1.3242 0,-1.1319 0.87245,-2.2884 1.99414,-2.6445 1.09674,-0.3481 2.67696,-1.3175 3.51367,-2.1543 1.07675,-1.0767 3.87271,-1.5679 9.56445,-1.6836 7.2683,-0.1474 8.22015,-0.4003 9.89063,-2.6152 1.59035,-2.1088 2.07415,-2.2633 3.4668,-1.1075 2.13323,1.7705 3.24267,0.5754 1.46289,-1.5761 -2.42722,-2.934 -11.09079,-6.3441 -16.14258,-6.3555 -2.61249,-0.01 -4.75,0.4402 -4.75,0.9902 0,0.55 1.31661,1 2.92578,1 2.88015,0 2.83332,0.089 -3.00586,5.6582 -5.64646,5.3858 -6.06336,5.598 -8.66602,4.4121 -2.61585,-1.1918 -2.6534,-1.3061 -0.84179,-2.6308 1.68635,-1.233 1.71588,-1.4528 0.26953,-2.0078 -0.9315,-0.3574 -2.74777,0.2617 -4.25977,1.4511 -1.98773,1.5635 -3.08922,1.8314 -4.47461,1.0899 -3.11656,-1.6679 -3.10251,-2.7678 0.0547,-4.6328 1.67059,-0.9869 2.83388,-2.3242 2.58594,-2.9707 -0.24809,-0.6465 0.1441,-1.9883 0.87109,-2.9825 1.09656,-1.4994 1.73949,-1.6161 3.77344,-0.6894 3.1463,1.4336 6.27826,-0.1385 3.51758,-1.7656 -2.00965,-1.1844 -2.36388,-3.9472 -0.5,-3.9004 0.68753,0.017 2.12185,0.6925 3.18945,1.5 2.47778,1.8757 3.6531,1.8751 2.93359,0 -0.31018,-0.8083 -2.05469,-2.0092 -3.87695,-2.668 -3.17238,-1.1471 -4.49609,-3.64471 -4.49609,-8.48632 0,-2.1484 3.35748,-1.62147 7.47656,1.17383 4.53415,3.07699 6.1494,2.25004 2.2168,-1.13476 -2.03105,-1.7481 -3.99965,-2.41407 -7.12891,-2.41407 -3.84072,0 -4.4592,0.32777 -5.54102,2.93946 -0.66957,1.61681 -0.95037,3.36976 -0.625,3.89648 0.98423,1.59258 -0.55435,7.16408 -1.97851,7.16408 -2.26537,0 -11.13751,-11.86761 -11.76563,-15.7383 -0.87193,-5.37301 0.29381,-12.21967 1.97071,-11.57617 0.75621,0.29011 1.375,0.0307 1.375,-0.57812 0,-0.60888 -0.66528,-1.10743 -1.47852,-1.10743 -1.21311,0 -1.27529,-0.44757 -0.34375,-2.49218 0.83891,-1.84119 1.4622,-2.22006 2.38867,-1.45118 0.81593,0.67752 1.46831,0.69507 1.86524,0.0527 0.33554,-0.54293 -0.13186,-1.40246 -1.03906,-1.91016 -3.03856,-1.70041 0.41424,-2.38069 6.0957,-1.20117 4.43274,0.9202 7.33731,0.82053 15.42187,-0.53125 5.61736,-0.93931 14.06896,-1.34562 21.94141,-1.25586 z m 110.43164,0.92578 c -0.30443,-0.0116 -0.64616,0.003 -1.02539,0.0469 -1.72683,0.1993 -2.87271,1.00674 -3.0957,2.18165 -0.24117,1.2695 0.0756,1.66858 0.99218,1.25 0.74004,-0.33801 2.13126,-0.89302 3.09375,-1.23243 2.40971,-0.84995 2.16611,-2.16523 0.0352,-2.24609 z m -104.67187,0.20703 c -0.35861,-0.0603 -0.61329,0.15883 -0.61329,0.5957 0,0.58239 0.44997,1.06055 1,1.06055 0.55,0 1,-0.19876 1,-0.44141 0,-0.24245 -0.45,-0.71881 -1,-1.05859 -0.1375,-0.085 -0.26718,-0.13615 -0.38671,-0.15625 z m -45.11329,2.6543 c -0.89,0 -1.33978,0.45 -1,1 0.33994,0.54999 0.78986,1 1,1 0.21011,0 0.66022,-0.45001 1,-1 0.3399,-0.55 -0.11007,-1 -1,-1 z m 39.5,0 c -0.55003,0 -1,0.45 -1,1 0,0.54999 0.44997,1 1,1 0.55,0 1,-0.45001 1,-1 0,-0.55 -0.45,-1 -1,-1 z m 8.65821,0.40039 c -0.42951,-0.0515 -0.8874,0.16474 -1.14649,0.58398 -0.34548,0.559 0.0722,1.01758 0.92969,1.01758 1.75654,0 2.01596,-0.59983 0.62891,-1.45703 -0.12801,-0.0791 -0.26894,-0.12737 -0.41211,-0.14453 z m 7.99414,0 c -0.10598,-0.0146 -0.21506,-0.0145 -0.32227,0.002 -0.14295,0.0219 -0.28382,0.0718 -0.41406,0.15235 -0.52082,0.32201 -0.6853,1.01219 -0.36328,1.5332 0.32198,0.52082 1.01223,0.68334 1.5332,0.36133 0.52082,-0.32202 0.68335,-1.01224 0.36133,-1.53321 -0.18111,-0.29295 -0.477,-0.47193 -0.79492,-0.51562 z m -60.71094,2.60156 c -0.58231,0 -0.78119,0.45 -0.44141,1 0.3399,0.55 0.81791,1 1.06055,1 0.24253,0 0.43945,-0.45 0.43945,-1 0,-0.55 -0.47613,-1 -1.05859,-1 z m 48.55859,0 c -0.89,0 -1.33978,0.45 -1,1 0.3399,0.55 0.78986,1 1,1 0.21007,0 0.66022,-0.45 1,-1 0.33994,-0.55 -0.11007,-1 -1,-1 z m -44.87695,0.38867 c -0.36445,0.0123 -0.62305,0.40961 -0.62305,1.05274 0,1.7565 0.5998,2.01392 1.45704,0.62695 0.31646,-0.51201 0.1195,-1.21314 -0.43946,-1.55859 -0.13975,-0.0864 -0.27305,-0.12518 -0.39453,-0.1211 z m 49.01758,0.75391 c -0.72656,0.069 -0.60718,0.49836 -0.28125,1.34766 0.37992,0.99008 -0.22386,1.68868 -1.79883,2.08398 -1.30344,0.32719 -3.3597,1.64697 -4.56836,2.93359 -2.04261,2.17418 -2.10108,2.60952 -0.84375,6.16602 l 1.35156,3.82617 0.3125,-3.75586 c 0.24926,-3.01281 0.90678,-4.06421 3.32813,-5.3164 l 3.01953,-1.56055 -2.25977,3.05469 c -1.24187,1.67981 -1.94748,3.36501 -1.56835,3.74414 0.37908,0.37908 1.30701,-0.15625 2.0625,-1.18946 0.93789,-1.28258 2.52114,-1.84726 4.99023,-1.77734 2.92263,0.0829 3.61523,-0.26042 3.61523,-1.79687 0,-1.45369 -0.71933,-1.90235 -3.05859,-1.90235 -3.55132,0 -3.15808,-1.53413 0.57617,-2.24805 3.90516,-0.74649 6.68419,3.24096 5.24805,7.53125 -0.59214,1.7689 -1.27002,5.77088 -1.50586,8.89258 -0.45781,6.05689 -1.8845,7.63109 -5.27148,5.81839 -1.17321,-0.6282 -2.08507,-0.6454 -2.45508,-0.047 -0.32376,0.5239 0.42834,1.4956 1.66992,2.1602 1.24154,0.6644 2.88495,1.836 3.65234,2.6035 2.0682,2.0681 5.58599,1.2065 5.96485,-1.461 0.17574,-1.2375 -0.16172,-2.25 -0.75,-2.25 -1.56099,0 -1.24601,-8.06864 0.42968,-10.99997 0.78603,-1.37499 1.44595,-3.93631 1.46485,-5.69141 0.0195,-1.75494 0.49374,-3.47291 1.05273,-3.81835 1.462,-0.9035 0.0493,-2.72923 -1.61719,-2.08985 -0.98516,0.37811 -1.40272,-0.26697 -1.41406,-2.18164 -0.009,-1.55792 -0.33113,-2.22307 -0.7539,-1.55859 -0.52022,0.81766 -2.06954,0.90573 -5.23633,0.29492 -3.05811,-0.58985 -4.62891,-0.88152 -5.35547,-0.8125 z m -9.98828,0.25586 c -0.10598,-0.0146 -0.21506,-0.0145 -0.32227,0.002 -0.14295,0.0219 -0.28382,0.0718 -0.41406,0.15235 -0.52082,0.32201 -0.6853,1.01223 -0.36328,1.5332 0.32198,0.52082 1.01223,0.68334 1.5332,0.36133 0.52082,-0.32202 0.68335,-1.0122 0.36133,-1.53321 -0.18111,-0.29295 -0.477,-0.47193 -0.79492,-0.51562 z m -5.71094,1.60156 c -0.51757,0 -0.94141,0.45 -0.94141,1 0,0.55 0.70309,1 1.56055,1 0.85746,0 1.27923,-0.45 0.93945,-1 -0.33993,-0.55 -1.04106,-1 -1.55859,-1 z m 6.16406,2.22852 c -0.43859,0.0125 -1.11831,0.24422 -2.01953,0.72656 -2.14552,1.14818 -2.5887,2.20821 -1.41406,3.38281 0.36922,0.36919 1.5405,-0.25944 2.60156,-1.39844 1.59414,-1.71103 1.79695,-2.73847 0.83203,-2.71093 z m -8.15234,0.77148 c -1.17426,0 -2.02389,1.59522 -1.25781,2.36133 1.2633,1.26331 3.23849,0.6255 2.66797,-0.86133 -0.31658,-0.82499 -0.95144,-1.5 -1.41016,-1.5 z m -19.04883,1 c -2.55035,0 -4.78686,1.05379 -9.72851,4.58399 -0.17878,0.12771 10e-4,2.40941 0.40039,5.07031 0.66432,4.43002 0.8064,4.62762 1.67773,2.34179 2.03206,-5.33083 2.27813,-5.49715 8.12109,-5.4707 5.54499,0.0248 7.13919,-0.73059 4.04493,-1.91797 -2.83113,-1.08642 -7.99242,-0.64088 -9.97852,0.86133 -3.19457,2.41618 -3.9373,1.72084 -1.03516,-0.96875 1.79316,-1.66189 3.85413,-2.5 6.14649,-2.5 1.89668,0 3.44726,-0.44996 3.44726,-1 0,-0.55 -1.3931,-1 -3.0957,-1 z m 20.25,3.25781 c -0.61544,-0.0879 -1.1543,0.2752 -1.1543,1.15821 0,0.8708 0.71315,1.58398 1.58399,1.58398 0.87076,0 1.4052,-0.5344 1.1875,-1.1875 -0.30903,-0.9271 -1.00174,-1.46676 -1.61719,-1.55469 z m 4.78711,0.74219 c -0.51753,0 -0.94141,0.45 -0.94141,1 0,0.55 0.70309,1 1.56055,1 0.85746,0 1.27923,-0.45 0.93945,-1 -0.33993,-0.55 -1.04106,-1 -1.55859,-1 z m 15.0918,2 c -2.48141,0 -2.59238,0.86988 -0.32032,2.53125 1.51458,1.10771 1.54359,1.45686 0.25,3.02344 -1.2438,1.50584 -1.24805,1.70033 -0.0332,1.29883 3.80716,-1.25832 3.89181,-6.85352 0.10352,-6.85352 z m 2,20.06057 c -0.55048,-0.01 -1.03321,1.2716 -1.03321,3.625 0,2.4376 -0.76188,4.5052 -2.25,6.1074 -2.14004,2.3043 -2.15242,2.4057 -0.25,2.0625 2.54,-0.4586 5.37829,-6.0409 4.74805,-9.3379 -0.31831,-1.6651 -0.78669,-2.4506 -1.21484,-2.457 z m 105.2539,0.08 c 0.057,-0.01 0.0948,5e-4 0.11133,0.019 0.94205,1.3212 2.57505,9.0721 2.08008,9.873 -0.33778,0.5465 -2.36506,1.8883 -4.50586,2.9805 -2.14556,1.0946 -5.87542,1.9863 -8.3125,1.9863 -4.39687,0 -4.42848,-0.025 -5.54101,-4.4433 -0.61531,-2.4436 -1.11772,-4.8061 -1.11719,-5.25 5.6e-4,-0.444 2.47074,-0.8292 5.48828,-0.8594 4.08922,-0.039 6.27225,-0.6345 8.57617,-2.3379 1.48763,-1.0999 2.82159,-1.9084 3.2207,-1.9687 z m -147.91015,6 c -0.80683,0.048 -1.37696,0.3479 -1.37696,0.789 0,0.5883 0.67501,1.0703 1.5,1.0703 0.825,0 1.5,0.675 1.5,1.5 0,0.825 0.48207,1.5 1.07032,1.5 2.16128,0 0.46339,-4.496 -1.82032,-4.8203 -0.30937,-0.044 -0.6041,-0.055 -0.87304,-0.039 z m 76.62109,1.6328 c 1.31964,-0.01 2.96389,0.036 5.00195,0.1132 9.49592,0.3605 21.08569,3.8974 42.21094,12.8809 4.64704,1.9761 6.19769,4.8162 2.05469,3.7637 -5.0228,-1.276 -25.26563,-1.8377 -25.26563,-0.7012 0,0.5777 -1.87709,1.1885 -4.17187,1.3574 -2.29474,0.1691 -4.35677,0.8678 -4.58203,1.5528 -0.31835,0.9682 2.00199,1.1045 10.42187,0.6132 5.95752,-0.3476 11.361,-1.0459 12.00586,-1.5527 1.4888,-1.1701 13.53413,0.926 14.55664,2.5332 0.40657,0.6388 0.73022,2.7371 0.72266,4.6621 -0.0126,2.6886 -0.84856,4.3114 -3.60742,7 -4.09554,3.9911 -9.04227,13.7019 -7.67578,15.0684 0.52701,0.527 1.7043,-0.6388 2.86132,-2.836 1.08095,-2.0527 2.61465,-4.4074 3.41016,-5.2324 1.27578,-1.323 1.35516,-1.264 0.66797,0.5 -1.84997,4.7498 -1.8483,8.6686 0.004,12.5352 2.24553,4.6879 3.81607,5.1928 2.8789,0.9258 -1.21069,-5.5116 -1.06985,-18.1589 0.2207,-19.8536 0.99772,-1.3098 1.22941,-0.079 1.25586,6.6426 0.0175,4.5375 0.4192,8.25 0.89258,8.25 2.23042,0 3.3517,-21.7166 1.73047,-33.5078 l -0.82422,-6.0058 6.86719,0.012 c 5.66309,0.01 7.45928,-0.4174 10.24805,-2.4063 4.4101,-3.1454 6.34571,-1.9742 7.46093,4.5098 0.75719,4.4025 5.79469,17.8758 9.12305,24.4023 3.13538,6.1483 4.67574,19.7203 3.06445,27 -1.21912,5.5079 -4.28819,10.7844 -6.76367,11.627 -3.96257,1.3488 -12.00156,0.3435 -18.74023,-2.3438 -10.78144,-4.2995 -26.93979,-13.1065 -36.97266,-20.1504 -5.19571,-3.6478 -10.09648,-7.0276 -10.88867,-7.5097 -4.49802,-2.7369 6.27708,7.8734 12.52539,12.334 2.01082,1.4355 3.67421,3.6166 4,5.2461 0.66403,3.32 7.48186,9.7968 10.3125,9.7968 1.78961,0 1.99609,0.6702 1.99609,6.4512 0,3.5479 0.4883,8.7225 1.08399,11.5 0.59558,2.7776 0.92719,5.5195 0.73633,6.0918 -0.39406,1.1821 -11.13239,-6.4889 -11.67188,-8.3379 -0.1934,-0.6629 -4.23398,-4.8798 -8.98047,-9.3711 -9.06512,-8.5776 -13.51206,-10.4168 -5.95898,-2.4648 2.41961,2.5474 5.00675,5.8575 5.75,7.3554 1.7989,3.6257 12.46942,12.5984 17.81836,14.9844 2.36919,1.0568 5.15715,1.6302 6.25,1.2832 1.67735,-0.5324 1.97265,-0.1579 1.97265,2.5059 0,3.7391 1.21737,6.2174 5.55665,11.3164 3.32851,3.9113 4.93997,8.9508 4.50585,14.0957 -0.482,5.7129 -7.59319,13.6827 -13.90039,15.5801 -1.46403,0.4405 -3.56211,1.1394 -4.66211,1.5527 -1.33039,0.4999 -0.68196,-0.6303 1.93555,-3.377 2.16427,-2.2708 3.62421,-4.4402 3.24414,-4.8203 -0.38003,-0.3801 -2.74899,1.4575 -5.26562,4.084 -5.68509,5.9333 -16.74784,11.2829 -25.05078,12.1133 l -5.86329,0.5859 4,-2.5039 c 5.49264,-3.4374 7.08421,-4.9302 5.73243,-5.3808 -0.60545,-0.2018 -3.37883,1.1988 -6.16211,3.1133 -4.78186,3.2894 -10.60591,5.4409 -11.71875,4.3281 -0.27799,-0.278 1.77991,-2.0021 4.57226,-3.8301 2.79232,-1.828 5.07617,-3.6685 5.07617,-4.0898 0,-1.0742 -1.41148,-0.9538 -2.58593,0.2207 -2.10131,2.1013 -13.13139,8.2638 -17.39844,9.7207 -5.68585,1.9413 -17.92972,3.0016 -24.83008,2.1504 -5.06067,-0.6242 -8.32137,-1.8575 -4.91016,-1.8575 0.88419,0 1.88402,-0.4485 2.22266,-0.9961 0.40271,-0.6516 -2.60123,-0.7648 -8.6914,-0.3261 -18.95358,1.3652 -19.5605,1.2872 -27.30665,-3.545 -7.83617,-4.8883 -14.94245,-11.2683 -17.08007,-15.3339 -1.95353,-3.7151 -1.86419,-19.3463 0.16406,-28.7989 0.88509,-4.125 3.21647,-12.7788 5.18164,-19.2304 3.08179,-10.1178 3.40667,-12.0965 2.36133,-14.3907 -1.04489,-2.2933 -0.93756,-2.9518 0.77929,-4.7793 1.63537,-1.7407 1.84445,-2.7752 1.16602,-5.7832 -0.45426,-2.0145 -0.48637,-4.0352 -0.0703,-4.4902 0.41605,-0.455 1.31426,-2.6261 1.99609,-4.8262 1.51007,-4.8724 6.54648,-14.1577 9.39844,-17.3261 l 2.09375,-2.3243 1.3418,11.8243 c 0.73783,6.5038 1.44199,15.6511 1.56445,20.3261 0.20666,7.9025 1.71281,13 3.84375,13 1.12437,0 0.92238,3.7815 -0.24024,4.5 -0.55003,0.34 -1,1.4487 -1,2.4649 0,1.3545 0.53302,1.7079 2,1.3242 1.1,-0.2876 2,-0.071 2,0.4824 0,0.5529 -1.57866,1.302 -3.50781,1.6641 -2.16571,0.4063 -4.13971,1.6232 -5.16211,3.1836 -1.55735,2.3767 -1.53811,2.7775 0.33203,6.7051 1.43857,3.0209 1.7919,5.0954 1.27539,7.5 -0.52784,2.4573 -0.34038,3.4666 0.71875,3.873 1.48101,0.5683 8.22339,-0.2429 9.07227,-1.0918 0.26423,-0.2642 1.08923,-3.6793 1.83398,-7.5879 1.3205,-6.9303 1.09776,-8.874 -1.49609,-13.0176 -1.28678,-2.0556 -4.06968,-8.1727 -4.05078,-8.9043 0.008,-0.328 0.4512,0.079 0.98437,0.9043 0.53314,0.825 0.97682,1.0213 0.98438,0.4375 0.008,-0.5838 0.91153,-2.0226 2.00586,-3.1972 1.09432,-1.1746 2.55441,-4.2959 3.24414,-6.9375 1.23364,-4.7245 3.46416,-9.3135 11.14258,-22.9297 3.78776,-6.717 11.79473,-22.6368 16.66015,-33.1231 2.1936,-4.7278 2.75308,-5.25 5.62696,-5.25 3.26109,0 7.33593,-3.6854 7.33593,-6.6347 0,-1.1335 1.03913,-1.5712 4.99805,-1.5879 z m -55.80664,2.2265 c 1.43138,0 0.86241,1.7656 -0.77148,2.3926 -2.8489,1.0932 -3.9602,0.5732 -1.97852,-0.9258 1.06764,-0.8075 2.30511,-1.4668 2.75,-1.4668 z m 19.94922,4.0489 c -0.50278,0.013 -0.89063,0.8619 -0.89063,2.4355 0,3.5183 -2.89257,7.4959 -6.32226,8.6914 -1.60861,0.5608 -2.68669,1.4065 -2.39453,1.8789 0.59263,0.9589 2.87619,0.2917 6.13086,-1.789 2.69892,-1.7254 5.5498,-7.5489 4.73437,-9.6739 -0.40498,-1.0553 -0.86676,-1.5527 -1.25781,-1.5429 z m -15.03516,1.207 c -0.47079,0.037 -1.06795,0.2986 -1.59765,0.7383 -0.84752,0.7033 -3.33268,1.2793 -5.52344,1.2793 -3.87489,0 -5.26023,1.0452 -2.73438,2.0644 2.7518,1.1104 6.65474,0.5608 8.89063,-1.2519 1.29857,-1.0527 2.03396,-2.2419 1.63476,-2.6426 -0.14967,-0.1503 -0.38744,-0.2094 -0.66992,-0.1875 z m 31.33203,3.9883 c 0.0822,-0.01 0.14286,10e-5 0.17579,0.035 0.43993,0.4399 -8.31201,18.0327 -20.00586,40.2207 -5.60724,10.6392 -6.19926,11.3603 -7.07422,8.6035 -0.7488,-2.3592 -4.35867,-3.6144 -7.86524,-2.7343 -1.48414,0.3725 -2.35075,0.1399 -2.38476,-0.6407 -0.0284,-0.675 -0.55471,-5.0405 -1.16797,-9.7011 -1.47421,-11.203 -1.42947,-17.0028 0.13476,-17.4317 0.6875,-0.1885 3.72498,-0.9103 6.75,-1.6035 3.02499,-0.6932 7.52502,-2.3892 10,-3.7676 2.47499,-1.3784 6.52502,-3.5878 9,-4.9101 2.47499,-1.3224 6.21745,-3.7785 8.31641,-5.459 1.83659,-1.4704 3.54594,-2.5429 4.12109,-2.6113 z m -9.77929,9.4765 c -0.51405,0.022 -2.17865,1.3828 -5.14063,4.0899 -3.01583,2.7563 -7.40333,5.691 -9.75,6.5215 -3.76373,1.3319 -3.93952,1.5199 -1.48437,1.5898 4.2455,0.1204 12.22235,-4.3852 14.61328,-8.2539 1.63842,-2.651 2.27576,-3.969 1.76172,-3.9473 z m -26.05664,11.9629 c -1.0598,0.01 -0.61709,1.1921 1.62109,2.7598 2.40106,1.6818 7.07053,1.9346 10.27734,0.5566 1.54413,-0.6636 1.02081,-0.8756 -2.29882,-0.9297 -2.36482,-0.039 -5.6273,-0.7566 -7.25,-1.5957 -1.07522,-0.556 -1.86789,-0.7949 -2.34961,-0.791 z m 60.46289,5.9512 c -0.22425,0.01 -0.39363,0.089 -0.49414,0.2519 -0.34575,0.5595 1.74677,2.5808 4.65039,4.4922 5.92735,3.9019 8.58112,4.7985 4.16406,1.4063 -1.58668,-1.2186 -3.10962,-2.456 -3.38477,-2.75 -1.95651,-2.0915 -3.9638,-3.4354 -4.93554,-3.4004 z m -3.51172,3.4844 c -0.43927,0.022 -0.55274,0.4963 -0.55274,1.3808 0,0.825 0.40424,1.5 0.89649,1.5 0.49228,0 1.95475,1.1614 3.25,2.5801 1.29521,1.4187 3.70352,3.4418 5.35351,4.4961 3.54819,2.2671 8.34958,2.4868 11.0586,0.5059 1.85318,-1.3551 1.8061,-1.4485 -1.0586,-2.0704 -5.71366,-1.2395 -12.01314,-3.789 -15.18164,-6.1445 -2.09566,-1.5579 -3.20085,-2.2768 -3.76562,-2.248 z m -1.70117,11.8808 c -1.14206,0 -2.85157,4.4303 -2.85157,7.3926 0,1.9442 -0.42119,2.1988 -3,1.8203 -2.73429,-0.4013 -3,-0.7792 -3,-4.2676 0,-4.1283 -1.16443,-5.6686 -2.7832,-3.6836 -1.03105,1.265 -1.67566,8.257 -1.38086,14.9883 0.13259,3.0286 0.54881,3.75 2.16406,3.75 1.66666,0 2,-0.6667 2,-4 0,-3.7777 0.16664,-4 3,-4 2.49211,0 3,0.4038 3,2.3789 0,2.706 2.64115,5.423 3.91602,4.0293 1.09395,-1.1958 0.0987,-18.4082 -1.06445,-18.4082 z m -22.48242,0.2754 c -1.304,-0.014 -2.32411,0.5898 -3.81836,2.084 -2.15316,2.1531 -2.55079,3.4613 -2.55079,8.4063 0,4.5118 0.46833,6.3608 2.03907,8.0468 3.48816,3.7441 9.96093,2.4367 9.96093,-2.0117 0,-2.4534 -3.05822,-2.2892 -3.70898,0.1992 -0.73882,2.8252 -3.12983,2.4842 -3.89258,-0.5547 -0.87273,-3.4773 0.0598,-12.3039 1.44727,-13.6914 0.8372,-0.8372 1.72929,-0.5625 3.45703,1.0606 2.69042,2.5275 3.69726,2.7476 3.69726,0.8086 0,-1.8099 -1.87765,-3.3036 -5.20507,-4.1387 -0.52615,-0.132 -0.99116,-0.2043 -1.42578,-0.209 z m -13.06055,1.8731 c -0.19699,-0.01 -0.41227,0.011 -0.65039,0.045 -2.47072,0.352 -7.08489,8.9109 -8.11719,15.0566 -0.55132,3.2822 -0.38439,3.75 1.34766,3.75 1.41539,0 2.06852,-0.783 2.29492,-2.75 0.26071,-2.2659 0.86794,-2.8041 3.44531,-3.0547 2.63709,-0.2564 3.22906,0.097 3.76953,2.25 0.35278,1.4057 1.35913,2.5547 2.23828,2.5547 1.17529,0 1.43267,-0.5947 0.97266,-2.25 -0.34386,-1.2375 -1.33942,-5.3126 -2.21094,-9.0566 -1.22461,-5.261 -1.71091,-6.4993 -3.08984,-6.5449 z m -28.28906,0.9238 c -1.64212,0.07 -3.43055,0.7262 -4.59571,2.0137 -2.69824,2.9804 -2.70847,13.8294 -0.0176,16.8066 3.38794,3.7484 9.80756,1.6735 8.13282,-2.6289 -0.62782,-1.6128 -0.84075,-1.5736 -2.50586,0.4668 -1.39933,1.7148 -2.05718,1.9443 -2.84571,0.9941 -3.74929,-4.5176 -0.78054,-18.7196 3.10157,-14.8379 1.52061,1.5207 2.71289,1.3984 2.71289,-0.2792 0,-1.7465 -1.87113,-2.6251 -3.98242,-2.5352 z m 12.40039,2.0664 c 1.16754,0.042 2.34563,1.4475 2.99218,4.0566 0.65651,2.6495 0.51348,4.7167 -0.51172,7.4102 -1.39025,3.6525 -3.25268,5.3004 -4.17968,3.6973 -1.20023,-2.0755 -1.68594,-10.2614 -0.75391,-12.7129 0.64305,-1.6914 1.54504,-2.4839 2.45313,-2.4512 z m 14.66015,0.9668 c 0.54265,0 0.91992,0.9456 0.91992,2.8359 h 0.002 c 0,3.1144 -0.7518,4.0592 -2.67774,3.3653 -0.86162,-0.3103 -0.9025,-1.2135 -0.15234,-3.3653 0.65896,-1.8903 1.36556,-2.8359 1.9082,-2.8359 z m 12.17383,19.1289 c -4.36143,0.017 -3.46701,0.2699 0.24609,1.252 l 5,1.3222 -6.60156,0.096 c -9.98506,0.1452 -18.89844,1.2612 -18.89844,2.3672 0,0.9398 2.8268,0.8175 20.73829,-0.9023 3.43079,-0.3295 5.99225,-0.9977 5.6914,-1.4844 -0.30077,-0.4866 0.26676,-0.877 1.26172,-0.877 3.04101,0.012 19.62056,2.8059 22.80859,3.8438 1.65003,0.5373 3.84321,1.0156 4.87305,1.0625 2.79028,0.1281 0.29387,-2.5184 -3.15234,-3.3418 -10.18643,-2.4338 -16.13408,-3.1948 -25.76367,-3.2949 -2.71231,-0.028 -4.74932,-0.049 -6.20313,-0.043 z m -10.25391,0.8887 c -0.63437,0 -1.26875,0.062 -1.75,0.1875 -0.96249,0.2517 -0.17498,0.457 1.75,0.457 1.92499,0 2.7125,-0.2057 1.75,-0.457 -0.48124,-0.1259 -1.11562,-0.1875 -1.75,-0.1875 z m 93.69141,4.2656 c 0.70159,0.022 1.34436,0.2306 1.85938,0.6563 0.57728,0.477 3.0523,1.1781 5.5,1.5566 2.44773,0.3785 5.64363,1.5223 7.10351,2.543 1.45992,1.0205 3.37239,1.8554 4.25,1.8554 1.72808,0 1.98931,0.8352 0.82813,2.6602 -0.95369,1.4989 -8.20377,0.2446 -11.65625,-2.0176 -3.68349,-2.4135 -6.23963,-2.0169 -8.73438,1.3574 -4.30764,5.8264 -8.76593,1.9908 -5.25781,-4.5234 1.36199,-2.5293 4.00266,-4.1527 6.10742,-4.0879 z m -113.70117,4.7344 c 0.80886,0.025 1.02491,1.046 0.82422,3.1269 -0.24038,2.4931 -0.83896,3.3247 -2.56836,3.5703 -3.32935,0.4728 -4.15024,-2.6691 -1.30078,-4.9765 1.42806,-1.1564 2.41581,-1.7399 3.04492,-1.7207 z m 115.57617,6.1035 c 1.74992,3e-4 4.32162,0.4046 7.93359,1.166 3.92493,0.8274 6,1.758 6,2.6875 0,1.0877 -1.90511,1.4883 -8.12304,1.709 -7.70041,0.2734 -8.15251,0.1701 -8.71094,-1.9648 -0.64708,-2.4745 -0.0161,-3.5983 2.90039,-3.5977 z m -113.94922,3.7734 c 2.22569,0 2.52652,0.3363 2.01367,2.25 -0.33169,1.2375 -0.60962,3.0375 -0.61718,4 -0.009,1.2189 -0.81056,1.75 -2.63868,1.75 -2.40665,0 -2.57301,-0.2599 -2,-3.125 0.34383,-1.7187 0.625,-3.5187 0.625,-4 0,-0.4812 1.17802,-0.875 2.61719,-0.875 z m 113.69922,4.5684 c 0.79026,0 1.77109,0.1127 2.75195,0.334 1.96173,0.4426 4.9997,0.5949 6.75,0.3379 4.18795,-0.6147 4.05049,0.499 -0.28515,2.3105 -1.90734,0.797 -3.59504,1.3877 -3.75,1.3125 -0.15519,-0.075 -1.40821,-0.3428 -2.78321,-0.5957 -3.1161,-0.5729 -5.34248,-2.3254 -4.29101,-3.3769 0.21815,-0.2181 0.81716,-0.3244 1.60742,-0.3223 z m 4.56641,6.4316 c 1.10003,0 2.2774,0.45 2.61718,1 0.33994,0.55 -0.28086,1 -1.38085,1 -1.1,0 -2.27937,-0.45 -2.61915,-1 -0.33993,-0.55 0.28282,-1 1.38282,-1 z"
       style="fill:#000000;stroke-width:0.999999"
       id="path785" />
  </g>
</svg>
